<?xml version="1.0" encoding="utf-8"?>
<!-- Generator: Adobe Illustrator 23.0.2, SVG Export Plug-In . SVG Version: 6.00 Build 0)  -->
<svg version="1.1" id="Layer_1" xmlns="http://www.w3.org/2000/svg" xmlns:xlink="http://www.w3.org/1999/xlink" x="0px" y="0px"
	 viewBox="0 0 773 297.7" style="enable-background:new 0 0 773 297.7;" xml:space="preserve">
<style type="text/css">
	.st0{fill:#42444F;}
	.st1{fill:#97D700;}
</style>
<g>
	<path class="st0" d="M336.2,223c-0.4-10-0.5-21.8-0.5-35.5h-0.4c-2.8,11.7-6.4,24.9-9.3,34.6l-8.8,30.8h-18.5l-7.3-30.8
		c-2.4-9.4-5-22.5-7.1-34.6H284c-0.5,12.5-0.9,25.6-1.3,35.5l-1.4,31.7h-21.8l5.5-88.4h31.9l5.8,23.9c2.5,9.7,5.1,21.5,6.9,32.3h0.4
		c2.5-10.7,5.4-23.2,8-32.5l6.7-23.6h31.1l4.5,88.4h-22.9L336.2,223z"/>
	<path class="st0" d="M382.8,183.5c-7.3,0-11.9-5-11.9-11.1c0-6.6,4.7-11.3,12.1-11.3c7.3,0,11.9,4.7,12.1,11.3
		c0,6.2-4.7,11.1-12.1,11.1H382.8z M371,254.7v-64.5h23.7v64.5H371z"/>
	<path class="st0" d="M435.3,171.9v18.4h13.4v17.3h-13.4V226c0,7.6,1.7,10.7,7.5,10.7c2.8,0,3.7,0,5.6-0.5v18c-2.8,1-8,1.8-14,1.8
		c-6.9,0-12.7-2.5-16.1-5.9c-3.9-3.9-6-10.2-6-20.1v-22.5h-8v-17.3h8v-12.1L435.3,171.9z"/>
	<path class="st0" d="M489.3,256.2c-19.3,0-34.2-12.2-34.2-33.2c0-20.6,13.5-34.2,35.5-34.2c20.2,0,33.6,13.6,33.6,33
		c0,23.5-16.8,34.3-34.7,34.3H489.3z M489.9,239.5c6.4,0,9.8-6.7,9.8-17c0-8.9-2.9-17-9.8-17c-7.9,0-10.5,8.5-10.5,17
		c0,9.7,3.1,17,10.4,17H489.9z"/>
	<path class="st0" d="M597.6,245.3c0,11.3-2.2,22-10.1,28.8c-7.3,6.3-17.2,8-27.1,8c-8.9,0-18-1.7-24-4.9l4.5-17.8
		c3.9,2.2,11.3,4.7,18.6,4.7c8.4,0,14.9-4.6,14.9-14.6v-2.9h-0.3c-3.9,4.9-9.7,7.2-16.1,7.2c-15.7,0-27.1-12.6-27.1-31.3
		c0-20.3,13.1-33.8,29.2-33.8c7.9,0,13.2,3,16.6,8.4h0.3l0.8-6.9h20.3c-0.3,4.1-0.5,9.6-0.5,19.8V245.3z M574,216.8
		c0-1-0.1-2.1-0.3-3c-1-4.7-4.1-7.3-8.4-7.3c-5.6,0-10.5,5.5-10.5,15.7c0,8.4,3.9,14.6,10.5,14.6c4.3,0,7.5-2.9,8.3-6.4
		c0.4-1.3,0.4-3.4,0.4-4.9V216.8z"/>
	<path class="st0" d="M626.1,230.7c0.8,5.1,8.3,8,16.6,8c6,0,11.8-0.7,17.6-2.5l3,15.7c-7.7,3-16.1,4.1-24.1,4.1
		c-22.7,0-35.5-12.5-35.5-32.9c0-14.9,9.7-34.3,33.4-34.3c20.8,0,29.8,15.3,29.8,33c0,3.8-0.5,7.3-0.9,8.9H626.1z M645.2,214.7
		c0-3.7-1.7-10.5-9.2-10.5c-6.9,0-9.7,6.4-10.1,10.5H645.2z"/>
	<path class="st0" d="M675.6,212.2c0-8.7-0.3-16-0.5-22h20.5l1,8.3h0.4c2.4-3.4,8.7-9.7,19.4-9.7c15.1,0,23.3,10.2,23.3,27.9v38
		h-23.7v-35.1c0-7.5-2.5-11.8-8.3-11.8c-4.6,0-6.7,3.1-7.7,5.6c-0.5,1.2-0.7,3-0.7,4.7v36.6h-23.7V212.2z"/>
</g>
<g>
	<g>
		<path class="st1" d="M89.3,59.9c-16.1,0-29.2,13.1-29.2,29.2s13.1,29.2,29.2,29.2s29.2-13.1,29.2-29.2S105.4,59.9,89.3,59.9z
			 M87.1,109.4c-5.2,0-9.8-1.1-12.7-2.7l2.2-8.8c2.3,1.4,6.9,3,10.6,3c3.7,0,5.2-1.3,5.2-3.3c0-2-1.2-3-5.8-4.5
			c-8.1-2.7-11.3-7.2-11.2-11.9c0-7.3,6.3-12.9,16-12.9c4.6,0,8.7,1,11.1,2.3l-2.2,8.5c-1.8-1-5.2-2.3-8.5-2.3c-3,0-4.7,1.2-4.7,3.2
			c0,1.9,1.5,2.8,6.4,4.5c7.5,2.6,10.6,6.4,10.7,12.2C104.2,104,98.4,109.4,87.1,109.4z"/>
	</g>
</g>
<g>
	<path class="st0" d="M120,261.3l0-0.7c0-1.2,0-2.5,0.1-3.7c-1.3,0.8-2.8,1.2-4.4,1.2H64c-3,0-5.8-1.6-7.3-4.2l-25.9-44.8
		c-1.5-2.6-1.5-5.8,0-8.5l25.9-44.8c1.3-2.2,3.5-3.7,6.1-4.1c0.3,0,53.6,0,54.1,0c1.9,0,2.8,0.2,3.6,1.3c-0.2-2.4-0.3-4.8-0.3-7.3
		c0-2,0.1-4,0.2-5.9c-0.9,1.1-1.7,1.5-3.7,1.5c-0.2,0-52.8,0-54.1,0c-2.6-0.3-4.9-1.9-6.3-4.2L30.4,92.4c-1.5-2.6-1.5-5.8,0-8.5
		l25.9-44.8c1.5-2.6,4.3-4.2,7.3-4.2h51.7c1.8,0,3.5,0.6,4.9,1.6c-0.1-1.8-0.2-3.7-0.2-5.6l0-0.8c0-1.6,0-3.9,0.1-5.4
		c-1.6,0-3.2,0-4.8,0H63.6c-6.7,0-12.9,3.6-16.3,9.4L21.4,78.8c-3.3,5.8-3.3,13,0,18.8l25.9,44.8c0.9,1.6,2.1,3.1,3.5,4.4
		c-1.2,1.2-2.2,2.5-3.1,4l-25.9,44.8c-3.3,5.8-3.3,13,0,18.8l25.9,44.8c3.3,5.8,9.6,9.4,16.3,9.4h51.7c1.5,0,2.9,0,4.5,0
		C120,266.3,120,263.5,120,261.3z"/>
</g>
<path class="st0" d="M170.2,83.7l-10.1,3.7c-0.3,0.1-0.5,0.2-0.8,0.3c-20.2-10.1-32.8-28.1-32.8-55.1c0-2.6,0-5.5,0.2-8h10.2
	c-0.3,2.5-0.5,5.4-0.5,8C136.4,57.5,148,75,170.2,83.7z"/>
<path class="st0" d="M181.2,92.4l-6.7,2.4c-25,8-38.2,26.1-38.2,52.6c0,24.9,11.7,42.4,33.9,51.1l-10.9,4
	c-20.2-10.1-32.9-28.1-32.9-55.1c0-29.2,14.8-47.9,38-57.4c0,0,0,0,0,0l0.6-0.2c1.5-0.6,3.1-1.2,4.7-1.7l7-2.6c2-0.6,4-1.3,5.8-2.1
	c0.2-0.1,0.3-0.1,0.4-0.2c21.5-8.8,32.8-26.1,32.8-50.7c0-2.6-0.2-5.5-0.5-7.9l10.2-0.1c0.2,2.5,0.2,5.3,0.2,8
	C225.8,64.5,208.2,83.8,181.2,92.4z"/>
<g>
	<path class="st0" d="M188.6,222.3c1.6,0,2.8,1.4,2.8,3.2s-1.3,3.2-2.8,3.2h-24.7c-1.6,0-2.8-1.4-2.8-3.2s1.3-3.2,2.8-3.2H188.6z"/>
	<path class="st0" d="M199,239.9L199,239.9c1.8,0,3.2,1.4,3.2,3.2c0,1.8-1.4,3.2-3.2,3.2h-45.8c-1.8,0-3.2-1.4-3.2-3.2
		c0-0.9,0.3-1.7,0.9-2.3c0.6-0.6,1.4-0.9,2.3-0.9L199,239.9z"/>
	<path class="st0" d="M203.5,258.4c1.8,0,3.2,1.4,3.2,3.2c0,1.8-1.4,3.2-3.2,3.2h-55c-1.8,0-3.2-1.4-3.2-3.2c0-1.8,1.4-3.2,3.2-3.2
		H203.5z"/>
</g>
<path class="st0" d="M163.5,187.2c-1.6,0-2.8-1.4-2.8-3.2s1.3-3.2,2.8-3.2h24.7c1.6,0,2.8,1.4,2.8,3.2s-1.3,3.2-2.8,3.2H163.5z"/>
<path class="st0" d="M153.1,168.8L153.1,168.8c-1.8,0-3.2-1.4-3.2-3.2c0-1.8,1.4-3.2,3.2-3.2H199c1.8,0,3.2,1.4,3.2,3.2
	c0,0.9-0.3,1.7-0.9,2.3c-0.6,0.6-1.4,0.9-2.3,0.9L153.1,168.8z"/>
<path class="st0" d="M188.6,107.3c1.6,0,2.8,1.4,2.8,3.2c0,1.8-1.3,3.2-2.8,3.2h-24.7c-1.6,0-2.8-1.4-2.8-3.2c0-1.8,1.3-3.2,2.8-3.2
	H188.6z"/>
<path class="st0" d="M199,125.7L199,125.7c1.8,0,3.2,1.4,3.2,3.2c0,1.8-1.4,3.2-3.2,3.2h-45.8c-1.8,0-3.2-1.4-3.2-3.2
	c0-0.9,0.3-1.7,0.9-2.3c0.6-0.6,1.4-0.9,2.3-0.9L199,125.7z"/>
<path class="st0" d="M148.5,150.5c-1.8,0-3.2-1.4-3.2-3.2s1.4-3.2,3.2-3.2h55c1.8,0,3.2,1.4,3.2,3.2s-1.4,3.2-3.2,3.2H148.5z"/>
<g>
	<path class="st0" d="M164,72.3c-1.6,0-2.8-1.4-2.8-3.2c0-1.8,1.3-3.2,2.8-3.2h24.7c1.6,0,2.8,1.4,2.8,3.2c0,1.8-1.3,3.2-2.8,3.2
		H164z"/>
	<path class="st0" d="M153.6,54.7L153.6,54.7c-1.8,0-3.2-1.4-3.2-3.2c0-1.8,1.4-3.2,3.2-3.2h45.8c1.8,0,3.2,1.4,3.2,3.2
		c0,0.9-0.3,1.7-0.9,2.3s-1.4,0.9-2.3,0.9L153.6,54.7z"/>
	<path class="st0" d="M149,36.2c-1.8,0-3.2-1.4-3.2-3.2c0-1.8,1.4-3.2,3.2-3.2h55c1.8,0,3.2,1.4,3.2,3.2c0,1.8-1.4,3.2-3.2,3.2H149z
		"/>
</g>
<path class="st0" d="M215.6,268.6c0.2-2,0.3-4.1,0.3-6.3c0-25.1-11.8-42.7-34.3-51.3l11-4c20.5,10,33.3,28.1,33.3,55.3
	c0,2.1,0,4.2-0.1,6.3H215.6z"/>
<path class="st0" d="M178.3,208.1l-8.1,3.1c-22.2,8.7-33.8,26.2-33.8,51.1c0,2.1,0.1,4.2,0.3,6.3h-10.1c-0.1-2-0.1-4.1-0.1-6.3
	c0-31.8,17.6-51.2,44.4-59.7l6.6-2.4c0.9-0.3,1.9-0.6,2.8-0.9c0.1,0,0.3-0.1,0.4-0.1c23.1-8.5,35.2-26.2,35.2-51.6
	c0-24.9-11.7-42.4-33.9-51.1l10.9-4c20.2,10.1,32.9,28.1,32.9,55.1C225.8,180.5,206.9,200.1,178.3,208.1z"/>
<g>
	<path class="st0" d="M262.5,115.4c5.2,3.2,12.8,5.9,20.7,5.9c11.8,0,18.7-6.2,18.7-15.3c0-8.4-4.8-13.2-16.9-17.8
		c-14.6-5.2-23.7-12.8-23.7-25.4c0-14,11.6-24.3,29-24.3c9.2,0,15.8,2.1,19.8,4.4l-3.2,9.4c-2.9-1.6-8.9-4.3-17-4.3
		c-12.2,0-16.9,7.3-16.9,13.4c0,8.4,5.5,12.5,17.8,17.3c15.2,5.9,22.9,13.2,22.9,26.3c0,13.8-10.2,25.8-31.4,25.8
		c-8.6,0-18.1-2.5-22.9-5.7L262.5,115.4z"/>
	<path class="st0" d="M376.5,111.9c0,6.6,0.1,12.5,0.5,17.6h-10.4L366,119h-0.3c-3.1,5.2-9.8,12-21.3,12c-10.1,0-22.2-5.6-22.2-28.2
		V65.1h11.7v35.6c0,12.2,3.7,20.5,14.4,20.5c7.8,0,13.3-5.5,15.4-10.6c0.7-1.7,1.1-3.9,1.1-6V65.1h11.7V111.9z"/>
	<path class="st0" d="M390.6,82.6c0-6.6-0.1-12.1-0.5-17.4h10.4l0.7,10.6h0.3c3.2-6.1,10.6-12.1,21.3-12.1c8.9,0,22.7,5.3,22.7,27.4
		v38.4h-11.7V92.4c0-10.4-3.9-19-14.9-19c-7.7,0-13.7,5.5-15.7,12c-0.5,1.5-0.8,3.5-0.8,5.5v38.7h-11.7V82.6z"/>
	<path class="st0" d="M502.9,119.5h-0.3c-3.5,6.4-10.6,11.4-21,11.4c-15,0-27.3-13-27.3-32.6c0-24.1,15.6-34.7,29.1-34.7
		c10,0,16.6,4.9,19.8,11.2h0.3l0.4-9.7h11c-0.3,5.5-0.4,11-0.4,17.7v73h-11.7V119.5z M502.9,91.2c0-1.6-0.1-3.5-0.5-4.9
		c-1.7-7.2-8-13.3-16.8-13.3c-12.1,0-19.4,10.2-19.4,24.7c0,12.8,6.1,23.9,19,23.9c7.6,0,14.1-4.7,16.8-12.8
		c0.5-1.6,0.9-3.9,0.9-5.6V91.2z"/>
	<path class="st0" d="M582.5,111.9c0,6.6,0.1,12.5,0.5,17.6h-10.4l-0.7-10.5h-0.3c-3.1,5.2-9.8,12-21.3,12
		c-10.1,0-22.2-5.6-22.2-28.2V65.1h11.7v35.6c0,12.2,3.7,20.5,14.4,20.5c7.8,0,13.3-5.5,15.4-10.6c0.7-1.7,1.1-3.9,1.1-6V65.1h11.7
		V111.9z"/>
	<path class="st0" d="M603.1,99.4c0.3,15.8,10.4,22.3,22.1,22.3c8.4,0,13.4-1.5,17.8-3.3l2,8.4c-4.1,1.9-11.2,4-21.4,4
		c-19.8,0-31.6-13-31.6-32.4c0-19.4,11.4-34.7,30.2-34.7c21,0,26.6,18.5,26.6,30.3c0,2.4-0.3,4.3-0.4,5.5H603.1z M637.4,91.1
		c0.1-7.4-3.1-19-16.2-19c-11.8,0-17,10.9-17.9,19H637.4z"/>
	<path class="st0" d="M656.9,117.5c3.5,2.3,9.6,4.7,15.4,4.7c8.5,0,12.5-4.3,12.5-9.6c0-5.6-3.3-8.6-12-11.8
		c-11.6-4.1-17-10.5-17-18.2c0-10.4,8.4-18.9,22.2-18.9c6.5,0,12.2,1.9,15.8,4l-2.9,8.5c-2.5-1.6-7.2-3.7-13.2-3.7
		c-6.9,0-10.8,4-10.8,8.8c0,5.3,3.9,7.7,12.2,10.9c11.2,4.3,16.9,9.8,16.9,19.4c0,11.3-8.8,19.3-24.1,19.3c-7,0-13.6-1.7-18.1-4.4
		L656.9,117.5z"/>
	<path class="st0" d="M721.3,46.7v18.5H738V74h-16.8v34.7c0,8,2.3,12.5,8.8,12.5c3.1,0,5.3-0.4,6.8-0.8l0.5,8.8
		c-2.3,0.9-5.9,1.6-10.4,1.6c-5.5,0-9.8-1.7-12.6-4.9c-3.3-3.5-4.5-9.2-4.5-16.8V74h-10v-8.9h10V49.7L721.3,46.7z"/>
</g>
</svg>
